<svg width="40" height="53" viewBox="0 0 40 53" fill="none" xmlns="http://www.w3.org/2000/svg">
<path d="M14.0625 29.25L16.3125 22.0625L10.375 17.4375H17.625L20 10L22.3125 17.4375H29.625L23.6875 22.0625L25.875 29.25L20 24.8125L14.0625 29.25ZM5.25 52.5V33.5C3.375 31.5417 2.03125 29.3958 1.21875 27.0625C0.40625 24.7292 0 22.375 0 20C0 14.3333 1.91667 9.58333 5.75 5.75C9.58333 1.91667 14.3333 0 20 0C25.6667 0 30.4167 1.91667 34.25 5.75C38.0833 9.58333 40 14.3333 40 20C40 22.375 39.5938 24.7292 38.7812 27.0625C37.9688 29.3958 36.625 31.5417 34.75 33.5V52.5L20 47.5625L5.25 52.5ZM20 36.25C24.5417 36.25 28.3854 34.6771 31.5312 31.5312C34.6771 28.3854 36.25 24.5417 36.25 20C36.25 15.4583 34.6771 11.6146 31.5312 8.46875C28.3854 5.32292 24.5417 3.75 20 3.75C15.4583 3.75 11.6146 5.32292 8.46875 8.46875C5.32292 11.6146 3.75 15.4583 3.75 20C3.75 24.5417 5.32292 28.3854 8.46875 31.5312C11.6146 34.6771 15.4583 36.25 20 36.25ZM9 47.25L20 43.8125L31 47.25V36.5625C29.3333 37.7708 27.5417 38.6458 25.625 39.1875C23.7083 39.7292 21.8333 40 20 40C18.1667 40 16.2917 39.7292 14.375 39.1875C12.4583 38.6458 10.6667 37.7708 9 36.5625V47.25Z" fill="#202020"/>
</svg>
